<svg xmlns="http://www.w3.org/2000/svg" width="392" height="300" viewBox="0 0 392 300" fill="none"><g clip-path="url(#clip0_647_3195)"><g style="mix-blend-mode:multiply"><path d="M180 300C329.117 300 450 294.404 450 287.5C450 280.596 329.117 275 180 275C30.8831 275 -90 280.596 -90 287.5C-90 294.404 30.8831 300 180 300Z" fill="url(#paint0_radial_647_3195)" fill-opacity="0.7"></path></g><path d="M355.094 243.112V235.799C358.806 238.541 362.892 239.913 367.352 239.913C373.336 239.913 376.328 237.918 376.328 233.929C376.328 232.793 376.065 231.837 375.539 231.061C375.04 230.258 374.347 229.552 373.461 228.942C372.602 228.333 371.577 227.793 370.386 227.322C369.222 226.823 367.962 226.31 366.604 225.784C364.721 225.036 363.058 224.288 361.618 223.54C360.205 222.764 359.014 221.906 358.044 220.964C357.102 219.994 356.382 218.9 355.883 217.681C355.412 216.462 355.177 215.035 355.177 213.401C355.177 211.406 355.634 209.647 356.548 208.123C357.462 206.572 358.681 205.284 360.205 204.259C361.729 203.206 363.46 202.417 365.399 201.89C367.366 201.364 369.388 201.101 371.466 201.101C375.151 201.101 378.447 201.738 381.356 203.012V209.91C378.226 207.86 374.624 206.835 370.552 206.835C369.278 206.835 368.128 206.988 367.103 207.292C366.078 207.569 365.191 207.971 364.444 208.497C363.723 209.024 363.155 209.661 362.74 210.409C362.352 211.129 362.158 211.933 362.158 212.819C362.158 213.927 362.352 214.855 362.74 215.603C363.155 216.351 363.751 217.016 364.527 217.598C365.302 218.18 366.244 218.706 367.352 219.177C368.46 219.648 369.721 220.16 371.134 220.714C373.018 221.435 374.707 222.183 376.203 222.958C377.699 223.706 378.974 224.565 380.026 225.535C381.079 226.477 381.883 227.571 382.437 228.818C383.018 230.064 383.309 231.546 383.309 233.264C383.309 235.369 382.838 237.198 381.896 238.749C380.982 240.3 379.749 241.589 378.198 242.614C376.647 243.639 374.86 244.4 372.837 244.899C370.815 245.398 368.696 245.647 366.48 245.647C362.103 245.647 358.307 244.802 355.094 243.112Z" fill="black"></path><path d="M344.785 244.65H337.97V220.216C337.97 215.506 337.236 212.099 335.768 209.993C334.328 207.888 331.89 206.835 328.455 206.835C325.546 206.835 323.066 208.165 321.016 210.824C318.994 213.484 317.983 216.67 317.983 220.382V244.65H311.168V219.385C311.168 211.018 307.94 206.835 301.486 206.835C298.494 206.835 296.028 208.096 294.089 210.617C292.15 213.11 291.18 216.365 291.18 220.382V244.65H284.365V202.098H291.18V208.83H291.346C294.366 203.677 298.771 201.101 304.561 201.101C307.469 201.101 310.004 201.918 312.165 203.552C314.326 205.159 315.808 207.278 316.611 209.91C319.77 204.037 324.479 201.101 330.74 201.101C340.104 201.101 344.785 206.877 344.785 218.429V244.65Z" fill="black"></path><path d="M276.967 208.997C275.776 208.082 274.059 207.625 271.815 207.625C268.906 207.625 266.468 208.997 264.501 211.739C262.562 214.482 261.592 218.222 261.592 222.959V244.65H254.777V202.099H261.592V210.867H261.758C262.728 207.875 264.21 205.548 266.205 203.885C268.199 202.196 270.43 201.351 272.895 201.351C274.668 201.351 276.026 201.545 276.967 201.932V208.997Z" fill="black"></path><path d="M222.702 245.647C216.413 245.647 211.385 243.666 207.618 239.705C203.878 235.716 202.008 230.438 202.008 223.873C202.008 216.725 203.961 211.143 207.867 207.126C211.773 203.109 217.051 201.101 223.699 201.101C230.043 201.101 234.988 203.054 238.534 206.96C242.108 210.866 243.895 216.282 243.895 223.208C243.895 229.995 241.969 235.439 238.119 239.539C234.296 243.611 229.157 245.647 222.702 245.647ZM223.201 206.835C218.824 206.835 215.361 208.331 212.812 211.323C210.263 214.287 208.989 218.387 208.989 223.623C208.989 228.665 210.277 232.641 212.854 235.549C215.43 238.458 218.879 239.913 223.201 239.913C227.605 239.913 230.985 238.486 233.34 235.632C235.722 232.779 236.914 228.721 236.914 223.457C236.914 218.138 235.722 214.038 233.34 211.157C230.985 208.276 227.605 206.835 223.201 206.835Z" fill="black"></path><path d="M194.525 191.377H171.255V211.988H192.78V218.263H171.255V244.65H164.273V185.061H194.525V191.377Z" fill="black"></path><path d="M150.483 244.65H143.668V220.382C143.668 211.351 140.372 206.835 133.779 206.835C130.371 206.835 127.545 208.123 125.301 210.7C123.085 213.248 121.977 216.476 121.977 220.382V244.65H115.162V202.098H121.977V209.162H122.143C125.357 203.788 130.011 201.101 136.106 201.101C140.76 201.101 144.319 202.611 146.785 205.63C149.251 208.622 150.483 212.958 150.483 218.637V244.65Z" fill="black"></path><path d="M98.0378 191.295C96.8188 191.295 95.7798 190.879 94.9208 190.048C94.0618 189.217 93.6328 188.164 93.6328 186.89C93.6328 185.616 94.0618 184.563 94.9208 183.732C95.7798 182.873 96.8188 182.444 98.0378 182.444C99.2838 182.444 100.337 182.873 101.196 183.732C102.082 184.563 102.525 185.616 102.525 186.89C102.525 188.109 102.082 189.148 101.196 190.007C100.337 190.865 99.2838 191.295 98.0378 191.295ZM101.362 244.651H94.5468V202.099H101.362V244.651Z" fill="black"></path><path d="M86.568 185.061L69.738 244.65H61.552L49.293 201.101C48.767 199.245 48.448 197.223 48.338 195.034H48.171C48.005 197.084 47.645 199.079 47.091 201.018L34.749 244.65H26.646L9.19336 185.061H16.881L29.555 230.771C30.081 232.682 30.414 234.677 30.552 236.755H30.76C30.899 235.287 31.328 233.292 32.048 230.771L45.221 185.061H51.911L64.544 231.103C64.987 232.682 65.32 234.539 65.541 236.672H65.707C65.818 235.231 66.192 233.32 66.829 230.937L79.005 185.061H86.568Z" fill="black"></path><mask id="mask0_647_3195" style="mask-type:luminance" maskUnits="userSpaceOnUse" x="135" y="26" width="70" height="126"><path d="M135.02 31.6961C149.076 74.6298 154.411 151.205 195.507 151.205C198.625 151.205 201.792 150.889 204.983 150.305C167.614 141.597 163.18 65.8728 140.379 26.6365C138.601 28.2663 136.822 29.9447 135.02 31.7204" fill="white"></path></mask><g mask="url(#mask0_647_3195)"><path d="M204.858 26.6604H-353.314V584.02H204.858V26.6604Z" fill="url(#paint1_linear_647_3195)"></path></g><mask id="mask1_647_3195" style="mask-type:luminance" maskUnits="userSpaceOnUse" x="140" y="22" width="74" height="129"><path d="M140.357 26.6119C163.159 65.8239 167.593 141.572 204.962 150.28C207.885 149.745 210.832 148.918 213.78 147.897C180.236 131.477 170.954 57.9425 145.083 22.5253C143.524 23.8388 141.941 25.201 140.357 26.6119Z" fill="white"></path></mask><g mask="url(#mask1_647_3195)"><path d="M213.733 22.5742H-358.666V594.14H213.733V22.5742Z" fill="url(#paint2_linear_647_3195)"></path></g><path d="M173.216 3.28406C170.097 3.28406 166.931 3.57596 163.739 4.18408C155.432 5.74089 146.979 9.31667 138.453 14.7412C140.792 17.0277 142.984 19.6548 145.079 22.5252C153.752 15.3493 162.351 10.0464 170.926 6.85984C174.141 5.66791 177.357 4.76789 180.572 4.18408C178.258 3.60028 175.798 3.28406 173.216 3.28406Z" fill="#00599A"></path><mask id="mask2_647_3195" style="mask-type:luminance" maskUnits="userSpaceOnUse" x="180" y="3" width="71" height="130"><path d="M250.274 3.33289H180.578V132.766H250.274V3.33289Z" fill="white"></path></mask><g mask="url(#mask2_647_3195)"><mask id="mask3_647_3195" style="mask-type:luminance" maskUnits="userSpaceOnUse" x="180" y="3" width="71" height="130"><path d="M239.968 132.766C243.403 130.042 246.838 127.026 250.273 123.742C235.997 81.0271 230.882 3.33289 189.469 3.33289C186.497 3.33289 183.525 3.60046 180.553 4.15994C218.263 13.5251 223.086 95.4275 239.944 132.742" fill="white"></path></mask><g mask="url(#mask3_647_3195)"><path d="M635.758 -322.306H180.289V132.499H635.758V-322.306Z" fill="url(#paint3_linear_647_3195)"></path></g></g><mask id="mask4_647_3195" style="mask-type:luminance" maskUnits="userSpaceOnUse" x="173" y="3" width="17" height="2"><path d="M189.495 3.28369H173.246V4.18372H189.495V3.28369Z" fill="white"></path></mask><g mask="url(#mask4_647_3195)"><path d="M180.576 4.18384C178.261 3.60004 175.801 3.28381 173.219 3.28381L189.492 3.33246C186.52 3.33246 183.548 3.60004 180.576 4.15951" fill="#0092C0"></path></g><path d="M239.257 141.84C237.649 140.308 236.114 138.605 234.579 136.805C227.612 141.718 220.669 145.465 213.775 147.897C216.236 149.089 218.794 149.989 221.522 150.524C223.641 150.962 225.834 151.181 228.124 151.181C235.846 151.181 241.961 150.257 247.174 147.775C244.299 146.219 241.668 144.224 239.232 141.84" fill="#006CB7"></path><mask id="mask5_647_3195" style="mask-type:luminance" maskUnits="userSpaceOnUse" x="170" y="4" width="70" height="133"><path d="M170.932 6.85971C204.695 24.4954 207.643 104.379 234.586 136.804C236.388 135.539 238.191 134.177 239.969 132.766C223.112 95.4515 218.289 13.5248 180.578 4.18396C177.363 4.79209 174.147 5.66779 170.932 6.85971Z" fill="white"></path></mask><g mask="url(#mask5_647_3195)"><path d="M239.602 3.79443H-354.697V597.228H239.602V3.79443Z" fill="url(#paint4_linear_647_3195)"></path></g><mask id="mask6_647_3195" style="mask-type:luminance" maskUnits="userSpaceOnUse" x="145" y="6" width="90" height="142"><path d="M145.076 22.5253C170.971 57.9426 180.228 131.477 213.773 147.897C220.667 145.464 227.61 141.742 234.577 136.804C207.634 104.379 204.686 24.4956 170.923 6.85999C162.348 10.0466 153.749 15.3494 145.076 22.5253Z" fill="white"></path></mask><g mask="url(#mask6_647_3195)"><path d="M233.604 6.27649H144.104V147.313H233.604V6.27649Z" fill="url(#paint5_linear_647_3195)"></path></g><mask id="mask7_647_3195" style="mask-type:luminance" maskUnits="userSpaceOnUse" x="105" y="20" width="30" height="48"><path d="M134.99 20.2141H105.246V67.575H134.99V20.2141Z" fill="white"></path></mask><g mask="url(#mask7_647_3195)"><path d="M118.427 30.6496C114.359 39.8201 110.217 51.861 105.199 67.575C115.163 53.5394 125.102 41.4499 134.992 31.6712C133.628 27.4873 132.166 23.6439 130.607 20.2141C126.563 23.3034 122.495 26.7819 118.427 30.6496Z" fill="#00B9F2"></path></g><path d="M134.221 17.5869C133.027 18.4383 131.833 19.314 130.615 20.2383C132.199 23.6682 133.636 27.5359 135 31.6954C136.803 29.944 138.581 28.2413 140.359 26.6115C138.435 23.3276 136.413 20.287 134.196 17.5869" fill="#0078AF"></path><path d="M138.456 14.7412C137.044 15.6413 135.631 16.5899 134.193 17.5629C136.41 20.2874 138.432 23.3037 140.357 26.5875C141.94 25.1767 143.499 23.7902 145.083 22.5009C142.988 19.6306 140.795 17.0035 138.456 14.7169" fill="#005E9E"></path><mask id="mask8_647_3195" style="mask-type:luminance" maskUnits="userSpaceOnUse" x="268" y="0" width="122" height="152"><path d="M389.59 0.0246582H268.201V151.156H389.59V0.0246582Z" fill="white"></path></mask><g mask="url(#mask8_647_3195)"><mask id="mask9_647_3195" style="mask-type:luminance" maskUnits="userSpaceOnUse" x="268" y="0" width="122" height="152"><path d="M368.836 0.0247803C349.737 73.5837 309.834 132.669 276.387 147.556L276.339 147.581C275.73 147.848 275.121 148.116 274.536 148.359C274.463 148.359 274.39 148.408 274.317 148.456C274.146 148.529 273.976 148.578 273.805 148.651C273.732 148.651 273.659 148.724 273.586 148.748C273.294 148.845 273.026 148.943 272.758 149.04C272.636 149.089 272.514 149.113 272.417 149.162C272.295 149.186 272.149 149.259 272.003 149.308C271.881 149.356 271.735 149.405 271.613 149.454C271.491 149.478 271.369 149.527 271.247 149.575C271.004 149.648 270.785 149.697 270.541 149.794C270.443 149.818 270.346 149.867 270.249 149.891C270.102 149.94 269.932 149.989 269.761 150.013C269.64 150.037 269.542 150.086 269.445 150.11C269.274 150.159 269.079 150.208 268.909 150.256C268.69 150.305 268.47 150.354 268.275 150.378C269.786 150.937 271.369 151.229 273.05 151.229C304.767 151.229 336.753 94.479 389.664 0.0977548H368.884L368.836 0.0247803Z" fill="white"></path></mask><g mask="url(#mask9_647_3195)"><path d="M712.712 -291.316H269.033V151.716H712.712V-291.316Z" fill="url(#paint6_linear_647_3195)"></path></g></g><mask id="mask10_647_3195" style="mask-type:luminance" maskUnits="userSpaceOnUse" x="-1" y="3" width="112" height="153"><path d="M110.03 3.28418H-0.445312V155.145H110.03V3.28418Z" fill="white"></path></mask><g mask="url(#mask10_647_3195)"><path d="M98.337 6.27634L98.385 6.25201C98.385 6.25201 98.434 6.22769 98.458 6.22769C98.458 6.22769 98.483 6.22769 98.507 6.22769C98.678 6.15471 98.848 6.08174 99.019 6.03309C99.067 6.03309 99.092 6.03309 99.116 6.00876C99.165 6.00876 99.189 5.98444 99.238 5.96011C99.433 5.88714 99.628 5.83849 99.798 5.76551C99.798 5.76551 99.798 5.76551 99.823 5.76551C100.237 5.64389 100.627 5.47361 101.041 5.32766C101.114 5.32766 101.162 5.30334 101.236 5.27901C101.406 5.23036 101.577 5.18171 101.747 5.10874C101.82 5.08441 101.918 5.06009 101.991 5.03576C102.186 4.98711 102.332 4.91414 102.527 4.88981C102.6 4.86549 102.673 4.84116 102.722 4.81683C103.306 4.67088 103.891 4.50061 104.475 4.37899C104.549 4.37899 104.622 4.35466 104.719 4.30601C104.89 4.28169 105.06 4.23303 105.231 4.20871C105.304 4.20871 105.401 4.16006 105.474 4.13573C105.645 4.11141 105.815 4.06276 105.986 4.03843C106.035 4.03843 106.059 4.03843 106.108 4.03843C106.449 3.96546 106.814 3.91681 107.155 3.84383C107.204 3.84383 107.301 3.84383 107.374 3.81951C107.545 3.79518 107.691 3.77086 107.862 3.72221C107.959 3.72221 108.056 3.72221 108.13 3.69788C108.3 3.69788 108.446 3.64923 108.592 3.62491C108.665 3.62491 108.763 3.62491 108.86 3.60058C109.226 3.57626 109.616 3.52761 110.005 3.50328C108.909 3.40598 107.764 3.33301 106.644 3.33301C70.931 3.33301 21.723 69.4971 -0.445312 155.194C-0.445312 155.194 1.16249 155.194 3.81779 155.194C10.931 142.57 17.289 130.602 23.111 119.388C38.629 58.6968 70.249 17.2956 98.337 6.32499" fill="#00A1E4"></path></g><path d="M118.43 30.6492C122.498 26.7815 126.566 23.3031 130.61 20.2138C129.684 18.1948 128.734 16.3218 127.711 14.619C124.447 18.584 121.475 23.7896 118.454 30.6492" fill="#0083C5"></path><path d="M121.376 6.76278C123.715 8.70878 125.81 11.4089 127.71 14.6198C128.319 13.89 128.928 13.2089 129.561 12.5521C126.906 10.071 124.03 8.05201 120.938 6.51953C121.058 6.59251 121.18 6.64116 121.326 6.71413C121.326 6.73846 121.375 6.76278 121.399 6.76278" fill="#0083C5"></path><mask id="mask11_647_3195" style="mask-type:luminance" maskUnits="userSpaceOnUse" x="23" y="6" width="76" height="114"><path d="M23.1055 119.339C55.6765 56.6531 71.0965 17.0032 98.3315 6.27588C70.2435 17.2465 38.6235 58.6477 23.1055 119.339Z" fill="white"></path></mask><g mask="url(#mask11_647_3195)"><path d="M476.792 -334.639H22.4922V118.998H476.792V-334.639Z" fill="url(#paint7_linear_647_3195)"></path></g><path d="M129.566 12.5763C128.933 13.2087 128.324 13.8898 127.715 14.6439C128.738 16.3467 129.688 18.2197 130.614 20.2387C131.832 19.3143 133.025 18.4386 134.219 17.5873C132.757 15.7629 131.198 14.0844 129.566 12.5763Z" fill="#007DC5"></path><mask id="mask12_647_3195" style="mask-type:luminance" maskUnits="userSpaceOnUse" x="35" y="67" width="71" height="89"><path d="M105.254 67.5757H35.3145V155.073H105.254V67.5757Z" fill="white"></path></mask><g mask="url(#mask12_647_3195)"><mask id="mask13_647_3195" style="mask-type:luminance" maskUnits="userSpaceOnUse" x="35" y="67" width="71" height="89"><path d="M37.898 154.854C37.703 154.879 37.483 154.903 37.313 154.927C37.264 154.927 37.24 154.927 37.191 154.927C37.021 154.927 36.85 154.952 36.68 154.976C36.655 154.976 36.631 154.976 36.606 154.976C36.192 155.025 35.803 155.025 35.413 155.073H35.291C68.251 154.149 83.33 137.681 90.809 113.769C96.485 95.6471 101.162 80.3953 105.254 67.5759C91.442 86.9873 77.581 110.096 63.622 136.027C56.899 148.505 46.667 153.735 37.898 154.854Z" fill="white"></path></mask><g mask="url(#mask13_647_3195)"><path d="M477.336 -285.527H35.7285V155.438H477.336V-285.527Z" fill="url(#paint8_linear_647_3195)"></path></g></g><mask id="mask14_647_3195" style="mask-type:luminance" maskUnits="userSpaceOnUse" x="37" y="30" width="82" height="125"><path d="M37.9004 154.854C46.6704 153.759 56.9024 148.529 63.6254 136.051C77.5844 110.144 91.4454 87.0112 105.233 67.5999C110.251 51.8616 114.392 39.8207 118.461 30.6744C90.9584 56.7995 63.3574 100.268 37.9004 154.854Z" fill="white"></path></mask><g mask="url(#mask14_647_3195)"><path d="M117.97 30.2845H37.4102V154.488H117.97V30.2845Z" fill="url(#paint9_linear_647_3195)"></path></g><path d="M23.108 119.338C17.286 130.552 10.903 142.52 3.81445 155.145C6.88385 155.145 11.317 155.145 16.238 155.145C17.87 142.593 20.209 130.625 23.108 119.338Z" fill="#00A1E4"></path><mask id="mask15_647_3195" style="mask-type:luminance" maskUnits="userSpaceOnUse" x="16" y="3" width="112" height="153"><path d="M108.853 3.5517C108.853 3.5517 108.682 3.57603 108.585 3.57603C108.439 3.60035 108.268 3.62468 108.122 3.649C108.122 3.649 107.927 3.649 107.854 3.67333C107.684 3.69765 107.513 3.72198 107.367 3.77063C107.367 3.77063 107.221 3.77063 107.148 3.79495C106.782 3.8436 106.441 3.91658 106.1 3.98955C106.1 3.98955 106.003 3.98955 105.978 3.98955C105.808 4.0382 105.637 4.06253 105.467 4.08685C105.467 4.08685 105.296 4.1355 105.199 4.15983C105.028 4.18415 104.858 4.2328 104.687 4.25713C104.687 4.25713 104.541 4.30578 104.444 4.30578C103.859 4.45173 103.274 4.59768 102.69 4.76796C102.69 4.76796 102.568 4.79228 102.495 4.84093C102.324 4.88958 102.154 4.93823 101.959 5.01121C101.959 5.01121 101.788 5.05986 101.715 5.08418C101.545 5.13283 101.374 5.18148 101.204 5.25446C101.204 5.25446 101.082 5.30311 101.009 5.30311C100.595 5.44906 100.205 5.59501 99.7906 5.71663H99.7665C99.5955 5.78961 99.4005 5.83826 99.2055 5.91123C99.2055 5.91123 99.0595 5.98421 98.9625 6.00853C98.7915 6.05718 98.5966 6.13016 98.4506 6.20313C98.4506 6.20313 98.3286 6.25178 98.2806 6.30043C71.0446 17.0278 55.6245 56.7019 23.0546 119.363C20.1556 130.65 17.8175 142.618 16.1855 155.17H17.9396C22.8356 155.17 24.2245 155.145 29.8755 155.145H34.3095C34.6505 155.145 34.9916 155.145 35.3326 155.145C35.7226 155.145 36.1116 155.097 36.5266 155.048C36.5266 155.048 36.5745 155.048 36.5995 155.048C36.7695 155.024 36.9405 155.024 37.1105 154.999C37.1105 154.999 37.1836 154.999 37.2326 154.999C37.4036 154.999 37.6226 154.951 37.8176 154.926C63.2736 100.317 90.8746 56.8479 118.378 30.7228C121.399 23.8874 124.371 18.6576 127.635 14.7169C125.735 11.4817 123.64 8.80591 121.301 6.83559C121.301 6.83559 121.253 6.83558 121.228 6.78693C121.106 6.73828 120.985 6.66531 120.838 6.59233C120.717 6.51936 120.595 6.47071 120.449 6.39773C120.449 6.39773 120.181 6.27611 120.083 6.20313C119.913 6.15448 119.791 6.08151 119.645 6.00853C119.523 5.95988 119.425 5.91123 119.304 5.86258C119.06 5.76528 118.816 5.66798 118.573 5.57068C118.573 5.57068 118.354 5.49771 118.256 5.44906C118.086 5.40041 117.891 5.32743 117.72 5.23013C117.72 5.23013 117.525 5.15716 117.428 5.13283C117.16 5.03553 116.916 4.96256 116.697 4.86526C116.697 4.86526 116.648 4.86525 116.624 4.84093C116.332 4.74363 116.064 4.67066 115.771 4.59768C115.771 4.59768 115.65 4.54903 115.577 4.5247C115.309 4.45173 115.089 4.37875 114.846 4.3301C114.846 4.3301 114.724 4.30578 114.675 4.28145C114.091 4.11118 113.482 3.98955 112.872 3.89225C112.872 3.89225 112.751 3.86793 112.678 3.8436C112.41 3.79495 112.166 3.7463 111.898 3.72198C111.898 3.72198 111.801 3.72198 111.752 3.69765C111.435 3.649 111.119 3.60035 110.826 3.57603C110.826 3.57603 110.729 3.57603 110.656 3.57603C110.412 3.52738 110.168 3.52738 109.949 3.50305C109.559 3.52738 109.17 3.57603 108.804 3.60035" fill="white"></path></mask><g mask="url(#mask15_647_3195)"><path d="M351.841 -301.928L-52.7578 -230.69L18.584 173.32L423.183 102.082L351.841 -301.928Z" fill="url(#paint10_linear_647_3195)"></path></g><mask id="mask16_647_3195" style="mask-type:luminance" maskUnits="userSpaceOnUse" x="278" y="3" width="51" height="88"><path d="M294.214 40.7444C287.954 60.7882 282.887 77.3293 278.453 90.927C295.652 67.3073 312.582 37.5821 328.709 3.28381C309.903 9.1948 299.866 22.6952 294.214 40.7444Z" fill="white"></path></mask><g mask="url(#mask16_647_3195)"><path d="M489.004 -120.993H277.555V90.1485H489.004V-120.993Z" fill="url(#paint11_linear_647_3195)"></path></g><mask id="mask17_647_3195" style="mask-type:luminance" maskUnits="userSpaceOnUse" x="276" y="0" width="93" height="148"><path d="M368.828 0.0246582H276.355V147.556H368.828V0.0246582Z" fill="white"></path></mask><g mask="url(#mask17_647_3195)"><mask id="mask18_647_3195" style="mask-type:luminance" maskUnits="userSpaceOnUse" x="276" y="0" width="93" height="148"><path d="M278.984 146.291C278.107 146.729 277.23 147.167 276.354 147.556C309.801 132.669 349.703 73.5837 368.802 0.0247803H364.928C321.055 78.3028 306.926 130.699 278.984 146.291Z" fill="white"></path></mask><g mask="url(#mask18_647_3195)"><path d="M-95.4794 -81.226L-181.453 405.646L306.129 491.494L392.102 4.62267L-95.4794 -81.226Z" fill="url(#paint12_linear_647_3195)"></path></g></g><path d="M257.161 139.724C264.444 130.845 270.364 115.763 278.452 90.9275C269.122 103.723 259.719 114.742 250.315 123.718C250.315 123.742 250.315 123.766 250.291 123.791C252.337 129.921 254.603 135.345 257.161 139.724Z" fill="#009BDF"></path><path d="M257.165 139.724C254.68 142.74 252.073 145.026 249.15 146.753C248.517 147.118 247.859 147.483 247.201 147.799C250.271 149.454 253.632 150.572 257.408 151.01H257.433C257.993 151.059 258.529 151.132 259.089 151.156H259.187C259.455 151.156 259.722 151.156 259.99 151.205H260.112C260.38 151.205 260.673 151.205 260.941 151.205C261.233 151.205 261.525 151.205 261.817 151.205C261.915 151.205 262.012 151.205 262.085 151.205C262.28 151.205 262.5 151.205 262.719 151.205C262.816 151.205 262.938 151.205 263.036 151.181C263.23 151.181 263.45 151.156 263.645 151.132C263.669 151.132 263.693 151.132 263.718 151.132C263.791 151.132 263.864 151.132 263.937 151.132C264.156 151.132 264.375 151.083 264.595 151.059C264.595 151.059 264.619 151.059 264.643 151.059C264.692 151.059 264.765 151.059 264.838 151.035C265.057 151.01 265.301 150.962 265.545 150.937C265.618 150.937 265.666 150.937 265.74 150.913C266.008 150.889 266.251 150.84 266.519 150.791H266.568C266.568 150.791 266.617 150.791 266.641 150.791C267.177 150.694 267.688 150.597 268.2 150.451C263.888 148.87 260.283 145.148 257.165 139.845" fill="#006CB7"></path><path d="M195.51 151.18C198.628 151.18 201.795 150.864 204.986 150.28C207.909 149.745 210.857 148.918 213.805 147.896C216.265 149.088 218.823 149.988 221.551 150.548C223.671 150.986 225.863 151.205 228.153 151.205H195.51V151.18Z" fill="#0061AF"></path><path d="M228.15 151.18C235.873 151.18 242.012 150.28 247.2 147.775C250.27 149.429 253.632 150.548 257.407 150.986H257.432C257.992 151.059 258.528 151.107 259.088 151.132H259.186C259.454 151.132 259.722 151.132 259.99 151.18H260.111C260.379 151.18 260.672 151.18 260.94 151.18H228.15Z" fill="#0061AF"></path><path d="M260.935 151.181C261.228 151.181 261.52 151.181 261.812 151.181C261.91 151.181 262.007 151.181 262.08 151.181C262.275 151.181 262.495 151.181 262.714 151.181C262.811 151.181 262.933 151.181 263.03 151.156C263.225 151.156 263.445 151.132 263.639 151.108C263.664 151.108 263.688 151.108 263.713 151.108C263.786 151.108 263.859 151.108 263.956 151.108C264.151 151.108 264.395 151.059 264.59 151.035C264.59 151.035 264.614 151.035 264.638 151.035C264.687 151.035 264.76 151.035 264.833 151.01C265.052 150.986 265.296 150.937 265.54 150.913C265.613 150.913 265.661 150.913 265.734 150.889C266.002 150.864 266.246 150.816 266.514 150.767H266.538H266.611C267.147 150.67 267.659 150.572 268.171 150.427C269.681 150.986 271.264 151.254 272.945 151.254H260.887L260.935 151.181Z" fill="#0064B1"></path><path d="M250.296 123.79C250.296 123.79 250.296 123.766 250.296 123.741C246.861 127.025 243.426 130.042 239.991 132.766C238.188 134.177 236.41 135.539 234.607 136.804C236.118 138.604 237.652 140.307 239.285 141.839C241.745 144.223 244.376 146.218 247.226 147.774C247.884 147.458 248.542 147.093 249.175 146.729C252.098 145.026 254.729 142.739 257.19 139.699C254.632 135.32 252.366 129.896 250.32 123.766" fill="#0062A8"></path><mask id="mask19_647_3195" style="mask-type:luminance" maskUnits="userSpaceOnUse" x="257" y="0" width="108" height="151"><path d="M352.687 0.0243256H336.414C335.878 0.0243256 335.342 0.0243256 334.806 0.0243256C334.294 0.0243256 333.783 0.0243256 333.271 0.0243256H333.222C332.175 0.0729757 331.152 0.121626 330.129 0.170276C329.641 1.19193 329.154 2.21358 328.691 3.23523C312.565 37.5335 295.634 67.2588 278.436 90.8784C270.348 115.714 264.428 130.796 257.145 139.674C260.263 144.977 263.868 148.699 268.18 150.28C268.302 150.231 268.399 150.231 268.521 150.207C268.521 150.207 268.57 150.207 268.594 150.207C268.594 150.207 268.74 150.159 268.838 150.159C269.008 150.11 269.203 150.086 269.374 150.013C269.374 150.013 269.593 149.964 269.69 149.915C269.861 149.867 270.031 149.842 270.177 149.794C270.177 149.794 270.372 149.721 270.47 149.696C270.713 149.623 270.957 149.575 271.176 149.477C271.176 149.477 271.395 149.38 271.542 149.356C271.688 149.307 271.81 149.258 271.931 149.21C272.078 149.161 272.224 149.137 272.345 149.088C272.345 149.088 272.589 149.015 272.687 148.967C272.979 148.869 273.247 148.772 273.539 148.675C273.539 148.675 273.685 148.602 273.758 148.602C273.929 148.529 274.099 148.48 274.27 148.407C274.27 148.407 274.416 148.358 274.489 148.334C275.074 148.091 275.683 147.848 276.292 147.556C276.292 147.556 276.316 147.556 276.341 147.531C277.218 147.142 278.095 146.729 278.947 146.266C306.913 130.674 321.018 78.278 364.916 0H352.662L352.687 0.0243256Z" fill="white"></path></mask><g mask="url(#mask19_647_3195)"><path d="M365.916 0.827148H-95.375V461.446H365.916V0.827148Z" fill="url(#paint13_linear_647_3195)"></path></g><mask id="mask20_647_3195" style="mask-type:luminance" maskUnits="userSpaceOnUse" x="106" y="3" width="68" height="15"><path d="M173.243 3.28418H106.617V17.5873H173.243V3.28418Z" fill="white"></path></mask><g mask="url(#mask20_647_3195)"><path d="M110.004 3.45455C110.004 3.45455 110.15 3.45455 110.199 3.45455C110.369 3.45455 110.54 3.45454 110.71 3.50319C110.783 3.50319 110.832 3.50319 110.881 3.50319C111.197 3.52752 111.49 3.57617 111.806 3.62482C111.855 3.62482 111.904 3.62482 111.953 3.64915C112.196 3.6978 112.489 3.74645 112.732 3.77077C112.805 3.77077 112.854 3.79509 112.927 3.81942C113.536 3.94105 114.145 4.06267 114.73 4.20862C114.778 4.20862 114.852 4.23295 114.9 4.25727C115.144 4.33025 115.387 4.40322 115.631 4.45187C115.704 4.45187 115.753 4.4762 115.826 4.52485C116.118 4.59782 116.386 4.6708 116.679 4.7681C116.679 4.7681 116.703 4.7681 116.727 4.79242C116.971 4.8654 117.215 4.9627 117.482 5.06C117.58 5.08432 117.677 5.13297 117.775 5.1573C117.945 5.23027 118.14 5.30325 118.311 5.37622C118.408 5.40055 118.506 5.4492 118.627 5.47352C118.847 5.57082 119.115 5.66812 119.334 5.76542C119.456 5.81407 119.577 5.86273 119.675 5.91138C119.821 5.98435 119.967 6.05733 120.113 6.10598C120.235 6.17895 120.381 6.2276 120.503 6.30058C120.649 6.37355 120.771 6.4222 120.893 6.49518C124.011 8.02765 126.861 10.0466 129.517 12.5278C130.491 11.5061 131.514 10.5818 132.562 9.75473C126.764 5.6438 120.187 3.30859 112.61 3.30859C111.733 3.30859 110.856 3.33292 109.955 3.43022" fill="#6DC3E8"></path><path d="M129.566 12.5762C131.199 14.0843 132.758 15.7627 134.219 17.5871C135.632 16.5898 137.045 15.6411 138.482 14.7654C136.631 12.9167 134.658 11.2383 132.636 9.8031C131.588 10.6302 130.565 11.5545 129.591 12.5762" fill="#37BEEA"></path><mask id="mask21_647_3195" style="mask-type:luminance" maskUnits="userSpaceOnUse" x="106" y="3" width="51" height="7"><path d="M110.003 3.45458C110.905 3.3816 111.757 3.33295 112.659 3.33295C120.235 3.33295 126.812 5.66816 132.61 9.77909C138.749 4.96273 146.13 3.2843 156.41 3.2843H106.617C107.762 3.2843 108.883 3.35728 109.979 3.45458" fill="white"></path></mask><g mask="url(#mask21_647_3195)"><path d="M115.397 -14.7888L105.783 8.35374L150.561 26.9017L160.175 3.75905L115.397 -14.7888Z" fill="url(#paint14_linear_647_3195)"></path></g><mask id="mask22_647_3195" style="mask-type:luminance" maskUnits="userSpaceOnUse" x="132" y="3" width="42" height="12"><path d="M156.406 3.28394C146.126 3.28394 138.72 4.96236 132.605 9.77872C134.627 11.2139 136.601 12.8923 138.452 14.741C146.978 9.31655 155.407 5.74077 163.738 4.18396C166.929 3.57584 170.096 3.28394 173.214 3.28394H156.406Z" fill="white"></path></mask><g mask="url(#mask22_647_3195)"><path d="M211.749 -34.0045L127.84 3.98534L165.885 87.7725L249.794 49.7826L211.749 -34.0045Z" fill="url(#paint15_linear_647_3195)"></path></g></g><mask id="mask23_647_3195" style="mask-type:luminance" maskUnits="userSpaceOnUse" x="250" y="0" width="81" height="124"><path d="M330.119 0.19458H250.338V123.693H330.119V0.19458Z" fill="white"></path></mask><g mask="url(#mask23_647_3195)"><mask id="mask24_647_3195" style="mask-type:luminance" maskUnits="userSpaceOnUse" x="250" y="0" width="81" height="124"><path d="M278.446 90.9271C282.88 77.3051 287.922 60.7884 294.207 40.7202C299.859 22.6467 309.871 9.14632 328.702 3.25966C329.189 2.26233 329.652 1.21635 330.139 0.194702C299.469 2.01908 285.145 17.6114 277.934 40.6716C265.316 80.9539 257.691 107.055 250.334 123.693C259.737 114.717 269.116 103.722 278.446 90.9271Z" fill="white"></path></mask><g mask="url(#mask24_647_3195)"><path d="M329.676 -0.412964H-121.506V450.111H329.676V-0.412964Z" fill="url(#paint16_linear_647_3195)"></path></g></g><g style="mix-blend-mode:multiply"><path d="M77.557 155.094C77.557 158.319 53.704 160.933 24.279 160.933C-5.1463 160.933 -29 158.319 -29 155.094C-29 151.87 -5.1463 149.256 24.279 149.256C53.704 149.256 77.557 151.87 77.557 155.094Z" fill="url(#paint17_radial_647_3195)" fill-opacity="0.8"></path></g></g><defs><radialGradient id="paint0_radial_647_3195" cx="0" cy="0" r="1" gradientUnits="userSpaceOnUse" gradientTransform="translate(180 287.5) rotate(90) scale(10.7014 231.151)"><stop stop-color="#002177" stop-opacity="0.2"></stop><stop offset="0.85" stop-color="#002177" stop-opacity="0"></stop></radialGradient><linearGradient id="paint1_linear_647_3195" x1="171.703" y1="2.53482" x2="171.703" y2="188.33" gradientUnits="userSpaceOnUse"><stop stop-color="#0095DA"></stop><stop offset="0.11" stop-color="#0095DA"></stop><stop offset="0.35" stop-color="#44C8F5"></stop><stop offset="0.45" stop-color="#44C8F5"></stop><stop offset="0.85" stop-color="#007DC5"></stop><stop offset="1" stop-color="#007DC5"></stop></linearGradient><linearGradient id="paint2_linear_647_3195" x1="172.477" y1="-1.58538" x2="172.477" y2="188.928" gradientUnits="userSpaceOnUse"><stop stop-color="#0078B9"></stop><stop offset="0.18" stop-color="#0078B9"></stop><stop offset="0.36" stop-color="#00AAE5"></stop><stop offset="0.52" stop-color="#00AAE5"></stop><stop offset="0.85" stop-color="#00AEEF"></stop><stop offset="1" stop-color="#00AEEF"></stop></linearGradient><linearGradient id="paint3_linear_647_3195" x1="216.917" y1="146.175" x2="216.917" y2="-5.41914" gradientUnits="userSpaceOnUse"><stop stop-color="#0066B3"></stop><stop offset="0.5" stop-color="#00B9F2"></stop><stop offset="1" stop-color="#00B9F2"></stop></linearGradient><linearGradient id="paint4_linear_647_3195" x1="204.022" y1="-21.6058" x2="204.022" y2="176.206" gradientUnits="userSpaceOnUse"><stop stop-color="#006CB2"></stop><stop offset="0.1" stop-color="#006CB2"></stop><stop offset="0.4" stop-color="#00AAE5"></stop><stop offset="0.52" stop-color="#00AAE5"></stop><stop offset="0.85" stop-color="#0097D9"></stop><stop offset="1" stop-color="#0097D9"></stop></linearGradient><linearGradient id="paint5_linear_647_3195" x1="184.597" y1="-20.4616" x2="184.597" y2="189.877" gradientUnits="userSpaceOnUse"><stop stop-color="#00487E"></stop><stop offset="0.11" stop-color="#00487E"></stop><stop offset="0.39" stop-color="#0087C7"></stop><stop offset="0.52" stop-color="#0087C7"></stop><stop offset="0.78" stop-color="#005598"></stop><stop offset="1" stop-color="#005598"></stop></linearGradient><linearGradient id="paint6_linear_647_3195" x1="329.683" y1="143.363" x2="329.683" y2="-4.3147" gradientUnits="userSpaceOnUse"><stop stop-color="#006DB0"></stop><stop offset="0.07" stop-color="#0680BF"></stop><stop offset="0.21" stop-color="#119DD6"></stop><stop offset="0.35" stop-color="#18B2E6"></stop><stop offset="0.48" stop-color="#1DBFF0"></stop><stop offset="0.6" stop-color="#1FC4F4"></stop><stop offset="1" stop-color="#1FC4F4"></stop></linearGradient><linearGradient id="paint7_linear_647_3195" x1="62.2552" y1="145.965" x2="62.2552" y2="-5.23934" gradientUnits="userSpaceOnUse"><stop stop-color="#008FD0"></stop><stop offset="0.52" stop-color="#009CDA"></stop><stop offset="1" stop-color="#00A4E0"></stop></linearGradient><linearGradient id="paint8_linear_647_3195" x1="65.7025" y1="147.819" x2="65.7025" y2="0.82264" gradientUnits="userSpaceOnUse"><stop stop-color="#00A0E4"></stop><stop offset="1" stop-color="#00A0E4"></stop></linearGradient><linearGradient id="paint9_linear_647_3195" x1="77.8122" y1="154.235" x2="77.8122" y2="30.0316" gradientUnits="userSpaceOnUse"><stop stop-color="#005DA3"></stop><stop offset="0.15" stop-color="#005DA4"></stop><stop offset="0.17" stop-color="#0061A7"></stop><stop offset="0.5" stop-color="#00A0E4"></stop><stop offset="0.92" stop-color="#71BEE3"></stop><stop offset="1" stop-color="#71BEE3"></stop></linearGradient><linearGradient id="paint10_linear_647_3195" x1="79.683" y1="146.462" x2="55.969" y2="11.7724" gradientUnits="userSpaceOnUse"><stop stop-color="#005496"></stop><stop offset="0.1" stop-color="#005496"></stop><stop offset="1" stop-color="#0082C5"></stop></linearGradient><linearGradient id="paint11_linear_647_3195" x1="305.312" y1="69.589" x2="305.312" y2="-0.783447" gradientUnits="userSpaceOnUse"><stop stop-color="#00A0E4"></stop><stop offset="0.51" stop-color="#009EE1"></stop><stop offset="0.77" stop-color="#0099DA"></stop><stop offset="0.87" stop-color="#0095D4"></stop><stop offset="1" stop-color="#0095D4"></stop></linearGradient><linearGradient id="paint12_linear_647_3195" x1="338.424" y1="-5.32242" x2="309.846" y2="156.99" gradientUnits="userSpaceOnUse"><stop stop-color="#00A4E0"></stop><stop offset="0.36" stop-color="#00A4E0"></stop><stop offset="0.96" stop-color="#0089CF"></stop><stop offset="1" stop-color="#0089CF"></stop></linearGradient><linearGradient id="paint13_linear_647_3195" x1="312.202" y1="0.652008" x2="312.202" y2="154.192" gradientUnits="userSpaceOnUse"><stop stop-color="#008DCF"></stop><stop offset="0.5" stop-color="#0087C8"></stop><stop offset="1" stop-color="#00508F"></stop></linearGradient><linearGradient id="paint14_linear_647_3195" x1="116.366" y1="-3.75046" x2="151.768" y2="10.9567" gradientUnits="userSpaceOnUse"><stop stop-color="#8CCEEC"></stop><stop offset="0.7" stop-color="#1FBAE8"></stop><stop offset="1" stop-color="#1FBAE8"></stop></linearGradient><linearGradient id="paint15_linear_647_3195" x1="133.992" y1="10.9721" x2="161.955" y2="-1.7252" gradientUnits="userSpaceOnUse"><stop stop-color="#68C5EA"></stop><stop offset="0.34" stop-color="#68C5EA"></stop><stop offset="0.44" stop-color="#53C1EA"></stop><stop offset="0.69" stop-color="#26B9EA"></stop><stop offset="0.89" stop-color="#0AB3EA"></stop><stop offset="1" stop-color="#00B2EA"></stop></linearGradient><linearGradient id="paint16_linear_647_3195" x1="292.308" y1="7.48295" x2="292.308" y2="157.666" gradientUnits="userSpaceOnUse"><stop stop-color="#00A5E4"></stop><stop offset="1" stop-color="#00A8E3"></stop></linearGradient><radialGradient id="paint17_radial_647_3195" cx="0" cy="0" r="1" gradientUnits="userSpaceOnUse" gradientTransform="translate(24.279 155.094) rotate(90) scale(4.99865 45.6127)"><stop stop-color="#002177" stop-opacity="0.2"></stop><stop offset="0.85" stop-color="#002177" stop-opacity="0"></stop></radialGradient><clipPath id="clip0_647_3195"><rect width="392" height="300" fill="white"></rect></clipPath></defs></svg>